<?xml version="1.0" standalone="no"?>
<!DOCTYPE svg PUBLIC "-//W3C//DTD SVG 20010904//EN"
 "http://www.w3.org/TR/2001/REC-SVG-20010904/DTD/svg10.dtd">
<svg version="1.0" xmlns="http://www.w3.org/2000/svg"
 width="500.000000pt" height="500.000000pt" viewBox="0 0 500.000000 500.000000"
 preserveAspectRatio="xMidYMid meet">

<g transform="translate(0.000000,500.000000) scale(0.100000,-0.100000)"
fill="#000000" stroke="none">
<path d="M0 2500 l0 -2500 2500 0 2500 0 0 2500 0 2500 -2500 0 -2500 0 0
-2500z m2711 687 c41 -28 59 -60 59 -110 0 -56 -25 -96 -73 -118 -53 -23 -81
-23 -133 0 -93 42 -99 178 -11 231 45 28 115 26 158 -3z m979 -214 l0 -238 34
51 c44 65 108 95 217 102 137 8 251 -44 303 -138 36 -67 46 -168 46 -486 l0
-284 -135 0 -135 0 0 308 c0 272 -2 311 -18 341 -27 55 -64 76 -132 76 -75 0
-105 -21 -145 -100 l-30 -60 -3 -282 -3 -283 -135 0 -134 0 0 615 0 615 135 0
135 0 0 -237z m-502 0 l3 -113 95 0 95 0 -3 -82 -3 -83 -93 -3 -93 -3 3 -250
3 -251 28 -24 c22 -19 39 -24 83 -24 l54 0 0 -84 0 -85 -45 -7 c-25 -3 -91 -5
-147 -2 -131 5 -181 28 -217 101 -23 47 -24 58 -29 338 l-5 289 -63 0 -64 0 0
85 0 85 65 0 65 0 0 108 c0 60 3 112 7 116 4 3 63 5 132 4 l126 -3 3 -112z
m-1075 -98 c166 -43 280 -159 318 -321 16 -72 13 -214 -6 -281 -58 -203 -217
-314 -450 -314 -213 0 -366 95 -435 270 -28 71 -39 237 -20 320 36 163 150
282 313 326 69 18 209 19 280 0z m647 -450 l0 -445 -130 0 -130 0 0 445 0 445
130 0 130 0 0 -445z m-1260 353 l0 -83 -229 -270 -230 -270 230 -3 229 -2 0
-85 0 -85 -375 0 -375 0 0 80 0 80 230 272 229 273 -214 3 -215 2 0 85 0 85
360 0 360 0 0 -82z m3080 -536 c50 -26 83 -93 76 -151 -11 -84 -65 -131 -151
-131 -91 0 -147 57 -147 151 0 61 25 104 77 129 50 25 100 25 145 2z m-3310
-588 c4 -25 9 -29 40 -29 42 0 60 -28 60 -97 0 -36 -4 -48 -15 -48 -12 0 -15
13 -15 60 0 47 -4 62 -16 67 -32 12 -49 -11 -52 -71 -2 -41 -7 -56 -17 -56
-12 0 -15 20 -15 106 0 80 3 105 13 102 6 -3 14 -18 17 -34z m-345 4 c1 -2 8
-13 14 -25 10 -19 9 -23 -3 -23 -7 0 -16 7 -20 15 -13 35 -76 35 -98 1 -14
-20 -9 -94 8 -110 22 -23 71 -20 84 4 12 22 30 27 30 8 0 -27 -34 -48 -76 -48
-54 0 -84 33 -84 92 0 51 14 77 52 93 27 11 82 7 93 -7z m65 -68 c0 -53 4 -90
10 -90 6 0 10 -4 10 -10 0 -16 -37 -11 -44 6 -3 9 -6 54 -6 100 0 68 3 84 15
84 12 0 15 -17 15 -90z m430 70 c0 -5 -7 -10 -15 -10 -8 0 -15 5 -15 10 0 6 7
10 15 10 8 0 15 -4 15 -10z m-220 -14 c0 -8 6 -17 13 -20 10 -5 10 -7 0 -12
-16 -7 -18 -114 -3 -114 6 0 10 -5 10 -11 0 -6 -10 -9 -22 -7 -21 3 -23 9 -26
66 -2 34 -7 62 -12 62 -4 0 -3 11 3 25 13 27 37 34 37 11z m-70 -36 c25 -25
27 -86 3 -112 -24 -27 -87 -24 -107 4 -38 54 -6 128 54 128 17 0 39 -9 50 -20z
m288 -58 c2 -60 0 -72 -13 -72 -12 0 -15 14 -15 76 0 56 3 75 13 72 8 -3 13
-30 15 -76z m137 62 c21 -22 21 -134 0 -134 -12 0 -15 13 -15 60 0 47 -4 62
-16 67 -32 12 -49 -11 -52 -71 -2 -41 -7 -56 -17 -56 -12 0 -15 16 -15 73 l0
74 50 1 c32 0 55 -4 65 -14z m165 -71 c0 -70 -3 -86 -20 -103 -32 -32 -110
-21 -110 15 0 19 9 19 31 -1 23 -20 65 -12 72 15 4 16 0 18 -38 13 -36 -4 -45
-1 -59 19 -22 32 -20 71 5 103 18 22 27 26 70 24 l49 -2 0 -83z"/>
<path d="M1917 2696 c-85 -31 -127 -106 -135 -236 -8 -154 32 -261 114 -300
79 -39 176 -14 223 55 69 102 66 329 -5 422 -46 60 -128 85 -197 59z"/>
<path d="M1052 1598 c-14 -14 -16 -67 -3 -86 4 -8 21 -12 36 -10 21 2 31 11
38 31 16 51 -37 99 -71 65z"/>
<path d="M1622 1598 c-7 -7 -12 -26 -12 -43 0 -37 16 -55 47 -55 40 0 54 79
19 102 -17 11 -41 9 -54 -4z"/>
</g>
</svg>
